<svg width="237" height="219" viewBox="0 0 237 219" fill="none" xmlns="http://www.w3.org/2000/svg">
<path d="M207 197C207 197 201.74 160.939 203.803 84.8377C203.822 84.1321 200.193 82.6838 200.193 82.6838C200.193 82.6838 203.906 81.2043 203.929 80.4455C203.999 78.141 204.074 75.8013 204.158 73.4265C204.196 72.3425 194.483 70.2728 194.483 70.2728C194.483 70.2728 204.359 67.9964 204.402 66.9074C204.98 52.232 205.822 36.2709 207 19H32C35.9615 77.0951 36.1276 120.375 35.2265 149.704C35.1905 150.866 49.2619 155.057 49.2619 155.057C49.2619 155.057 34.9566 157.393 34.8721 159.404C33.7897 184.731 32.0014 197 32.0014 197H207Z" fill="#F7E6BB"/>
<path opacity="0.3" d="M205.113 51C205.614 40.8803 206.239 30.2153 207 19H32C32.5454 26.995 33.0173 34.7083 33.4243 42.1439C130.381 39.007 205.113 51 205.113 51Z" fill="black"/>
<path opacity="0.3" d="M207 197C207 197 206.265 191.739 205.454 181C95.1691 182.644 33.5392 181.082 33.5392 181.082C32.7295 191.766 32 197 32 197H207Z" fill="black"/>
<path d="M210.238 199.31C210.238 195.458 211.055 192.336 218.066 192.336C225.076 192.336 235.626 195.458 235.626 199.31C235.626 203.16 225.076 206.282 218.066 206.282C211.056 206.282 210.238 203.16 210.238 199.31Z" fill="#693121"/>
<path opacity="0.3" d="M210.238 199.31C210.238 199.31 212.133 203.038 220.53 202.419C231.111 201.646 235.626 195.458 235.626 199.31C235.626 203.16 225.076 206.282 218.066 206.282C211.056 206.282 210.238 203.16 210.238 199.31Z" fill="black"/>
<path d="M25.387 198.976C25.387 195.124 24.571 192.002 17.56 192.002C10.55 192.002 0 195.124 0 198.976C0 202.826 10.55 205.948 17.56 205.948C24.57 205.948 25.387 202.826 25.387 198.976Z" fill="#944E39"/>
<path d="M2.507 197.059C2.795 195.49 13.578 191.64 19.372 193.385C19.507 194.437 15.484 194.236 10.611 195.337C5.35901 196.527 2.381 197.749 2.507 197.059Z" fill="#D18067"/>
<path opacity="0.3" d="M25.387 198.976C25.387 198.976 23.463 202.249 15.198 202.719C3.529 203.384 0 195.124 0 198.976C0 202.826 10.55 205.948 17.56 205.948C24.57 205.948 25.387 202.826 25.387 198.976Z" fill="black"/>
<path d="M214.152 180H206.187V218.041H214.152C216.465 218.041 218.341 209.524 218.341 199.02C218.341 188.514 216.465 180 214.152 180Z" fill="#853E2A"/>
<path opacity="0.3" d="M206.188 204.284V218.041H214.153C216.063 218.041 217.671 212.225 218.176 204.284H206.188Z" fill="black"/>
<path d="M210.376 199.02C210.376 209.524 208.501 218.041 206.188 218.041C203.875 218.041 202 209.524 202 199.02C202 188.514 203.875 180 206.188 180C208.501 180 210.376 188.514 210.376 199.02Z" fill="#D18067"/>
<path opacity="0.3" d="M208.826 204.522L210.215 204.284C209.71 212.229 208.098 218.041 206.188 218.041C203.875 218.041 202 209.524 202 199.02L208.826 204.522Z" fill="black"/>
<path d="M21.493 179.666H29.457V217.707H21.493C19.18 217.707 17.304 209.19 17.304 198.686C17.304 188.18 19.18 179.666 21.493 179.666Z" fill="#853E2A"/>
<path opacity="0.3" d="M17.47 203.95C17.974 211.89 19.582 217.707 21.493 217.707H29.457V203.95H17.47Z" fill="black"/>
<path d="M29.456 217.707C31.7695 217.707 33.645 209.191 33.645 198.686C33.645 188.181 31.7695 179.665 29.456 179.665C27.1425 179.665 25.267 188.181 25.267 198.686C25.267 209.191 27.1425 217.707 29.456 217.707Z" fill="#693121"/>
<path d="M205.408 183H31.5948C29.0578 183 27 189.939 27 198.5C27 207.06 29.0578 214 31.5948 214H205.408C207.944 214 210 207.06 210 198.5C210 189.939 207.944 183 205.408 183Z" fill="#F7E6BB"/>
<path opacity="0.2" d="M27 204C27.6539 209.841 29.3387 214 31.3178 214H205.684C207.661 214 209.349 209.841 210 204C210 204 181.483 205.723 118.501 205.723C55.5185 205.723 27 204 27 204Z" fill="black"/>
<path d="M211.238 19.311C211.238 15.459 212.055 12.337 219.066 12.337C226.076 12.337 236.626 15.459 236.626 19.311C236.626 23.162 226.076 26.283 219.066 26.283C212.056 26.283 211.238 23.162 211.238 19.311Z" fill="#693121"/>
<path opacity="0.3" d="M211.238 19.311C211.238 19.311 213.133 23.039 221.53 22.422C232.111 21.647 236.626 15.459 236.626 19.311C236.626 23.162 226.076 26.283 219.066 26.283C212.056 26.283 211.238 23.162 211.238 19.311Z" fill="black"/>
<path d="M25.387 19.311C25.387 15.459 24.571 12.337 17.56 12.337C10.55 12.337 0 15.459 0 19.311C0 23.162 10.55 26.283 17.56 26.283C24.57 26.283 25.387 23.162 25.387 19.311Z" fill="#944E39"/>
<path d="M2.507 17.393C2.795 15.824 13.578 11.976 19.372 13.722C19.507 14.773 15.484 14.573 10.611 15.675C5.35901 16.862 2.381 18.083 2.507 17.393Z" fill="#D18067"/>
<path opacity="0.3" d="M25.387 19.311C25.387 19.311 23.463 22.585 15.198 23.056C3.529 23.719 0 15.46 0 19.311C0 23.162 10.55 26.283 17.56 26.283C24.57 26.283 25.387 23.162 25.387 19.311Z" fill="black"/>
<path d="M215.152 0.000976562H207.187V38.042H215.152C217.465 38.042 219.341 29.526 219.341 19.021C219.341 8.51598 217.465 0.000976562 215.152 0.000976562Z" fill="#853E2A"/>
<path opacity="0.3" d="M207.188 24.285V38.042H215.153C217.063 38.042 218.671 32.227 219.176 24.285H207.188Z" fill="black"/>
<path d="M211.376 19.021C211.376 29.526 209.501 38.042 207.188 38.042C204.875 38.042 203 29.526 203 19.021C203 8.516 204.875 0 207.188 0C209.501 0.001 211.376 8.516 211.376 19.021Z" fill="#D18067"/>
<path opacity="0.3" d="M209.826 24.522L211.215 24.285C210.71 32.229 209.098 38.042 207.188 38.042C204.875 38.042 203 29.526 203 19.021L209.826 24.522Z" fill="black"/>
<path d="M21.493 0.000976562H29.457V38.042H21.493C19.18 38.042 17.304 29.526 17.304 19.021C17.304 8.51598 19.18 0.000976562 21.493 0.000976562Z" fill="#853E2A"/>
<path opacity="0.3" d="M17.47 24.285C17.974 32.226 19.582 38.042 21.493 38.042H29.457V24.285H17.47Z" fill="black"/>
<path d="M29.456 38.042C31.7695 38.042 33.645 29.526 33.645 19.021C33.645 8.51599 31.7695 0 29.456 0C27.1425 0 25.267 8.51599 25.267 19.021C25.267 29.526 27.1425 38.042 29.456 38.042Z" fill="#693121"/>
<path d="M206.383 3H31.62C29.069 3 27 10.1638 27 19.0005C27 27.8372 29.069 35 31.62 35H206.383C208.932 35 211 27.8372 211 19.0005C211 10.1638 208.932 3 206.383 3Z" fill="#F7E6BB"/>
<path opacity="0.2" d="M27 25C27.6575 30.8416 29.3515 35 31.3414 35H206.66C208.649 35 210.345 30.8416 211 25C211 25 182.327 26.7243 119.001 26.7243C55.6743 26.7243 27 25 27 25Z" fill="black"/>
</svg>
