<svg width="237" height="338" viewBox="0 0 237 338" fill="none" xmlns="http://www.w3.org/2000/svg">
<path d="M207 302C207 302 201.74 244.668 203.803 123.675C203.822 122.553 200.193 120.25 200.193 120.25C200.193 120.25 203.906 117.898 203.929 116.691C203.999 113.027 204.074 109.308 204.158 105.532C204.196 103.809 194.483 100.518 194.483 100.518C194.483 100.518 204.359 96.8988 204.402 95.1673C204.98 71.8352 205.822 46.4589 207 19H32C35.9615 111.365 36.1276 180.175 35.2265 226.805C35.1905 228.652 49.2619 235.315 49.2619 235.315C49.2619 235.315 34.9566 239.03 34.8721 242.226C33.7897 282.493 32.0014 302 32.0014 302H207Z" fill="#F7E6BB"/>
<path opacity="0.3" d="M205.113 51C205.614 40.8803 206.239 30.2153 207 19H32C32.5454 26.995 33.0173 34.7083 33.4243 42.1439C130.381 39.007 205.113 51 205.113 51Z" fill="black"/>
<path opacity="0.3" d="M207 302C207 302 206.265 296.739 205.454 286C95.1691 287.644 33.5392 286.082 33.5392 286.082C32.7295 296.766 32 302 32 302H207Z" fill="black"/>
<path d="M210.238 318.645C210.238 314.793 211.055 311.671 218.066 311.671C225.076 311.671 235.626 314.793 235.626 318.645C235.626 322.495 225.076 325.617 218.066 325.617C211.056 325.617 210.238 322.495 210.238 318.645Z" fill="#693121"/>
<path opacity="0.3" d="M210.238 318.645C210.238 318.645 212.133 322.373 220.53 321.754C231.111 320.981 235.626 314.793 235.626 318.645C235.626 322.495 225.076 325.617 218.066 325.617C211.056 325.617 210.238 322.495 210.238 318.645Z" fill="black"/>
<path d="M25.387 318.311C25.387 314.459 24.571 311.337 17.56 311.337C10.55 311.337 0 314.459 0 318.311C0 322.161 10.55 325.283 17.56 325.283C24.57 325.283 25.387 322.161 25.387 318.311Z" fill="#944E39"/>
<path d="M2.507 316.394C2.795 314.825 13.578 310.975 19.372 312.72C19.507 313.772 15.484 313.571 10.611 314.672C5.35901 315.862 2.381 317.084 2.507 316.394Z" fill="#D18067"/>
<path opacity="0.3" d="M25.387 318.311C25.387 318.311 23.463 321.584 15.198 322.054C3.529 322.719 0 314.459 0 318.311C0 322.161 10.55 325.283 17.56 325.283C24.57 325.283 25.387 322.161 25.387 318.311Z" fill="black"/>
<path d="M214.152 299.335H206.187V337.376H214.152C216.465 337.376 218.341 328.859 218.341 318.355C218.341 307.849 216.465 299.335 214.152 299.335Z" fill="#853E2A"/>
<path opacity="0.3" d="M206.188 323.619V337.376H214.153C216.063 337.376 217.671 331.56 218.176 323.619H206.188Z" fill="black"/>
<path d="M210.376 318.355C210.376 328.859 208.501 337.376 206.188 337.376C203.875 337.376 202 328.859 202 318.355C202 307.849 203.875 299.335 206.188 299.335C208.501 299.335 210.376 307.849 210.376 318.355Z" fill="#D18067"/>
<path opacity="0.3" d="M208.826 323.857L210.215 323.619C209.71 331.564 208.098 337.376 206.188 337.376C203.875 337.376 202 328.859 202 318.355L208.826 323.857Z" fill="black"/>
<path d="M21.493 299.001H29.457V337.042H21.493C19.18 337.042 17.304 328.525 17.304 318.021C17.304 307.515 19.18 299.001 21.493 299.001Z" fill="#853E2A"/>
<path opacity="0.3" d="M17.47 323.285C17.974 331.225 19.582 337.042 21.493 337.042H29.457V323.285H17.47Z" fill="black"/>
<path d="M29.456 337.042C31.7695 337.042 33.645 328.526 33.645 318.021C33.645 307.516 31.7695 299 29.456 299C27.1425 299 25.267 307.516 25.267 318.021C25.267 328.526 27.1425 337.042 29.456 337.042Z" fill="#693121"/>
<path d="M205.408 302.335H31.5948C29.0578 302.335 27 309.274 27 317.835C27 326.395 29.0578 333.335 31.5948 333.335H205.408C207.944 333.335 210 326.395 210 317.835C210 309.274 207.944 302.335 205.408 302.335Z" fill="#F7E6BB"/>
<path opacity="0.2" d="M27 323.335C27.6539 329.176 29.3387 333.335 31.3178 333.335H205.684C207.661 333.335 209.349 329.176 210 323.335C210 323.335 181.483 325.058 118.501 325.058C55.5185 325.058 27 323.335 27 323.335Z" fill="black"/>
<path d="M211.238 19.311C211.238 15.459 212.055 12.337 219.066 12.337C226.076 12.337 236.626 15.459 236.626 19.311C236.626 23.162 226.076 26.283 219.066 26.283C212.056 26.283 211.238 23.162 211.238 19.311Z" fill="#693121"/>
<path opacity="0.3" d="M211.238 19.311C211.238 19.311 213.133 23.039 221.53 22.422C232.111 21.647 236.626 15.459 236.626 19.311C236.626 23.162 226.076 26.283 219.066 26.283C212.056 26.283 211.238 23.162 211.238 19.311Z" fill="black"/>
<path d="M25.387 19.311C25.387 15.459 24.571 12.337 17.56 12.337C10.55 12.337 0 15.459 0 19.311C0 23.162 10.55 26.283 17.56 26.283C24.57 26.283 25.387 23.162 25.387 19.311Z" fill="#944E39"/>
<path d="M2.507 17.393C2.795 15.824 13.578 11.976 19.372 13.722C19.507 14.773 15.484 14.573 10.611 15.675C5.35901 16.862 2.381 18.083 2.507 17.393Z" fill="#D18067"/>
<path opacity="0.3" d="M25.387 19.311C25.387 19.311 23.463 22.585 15.198 23.056C3.529 23.719 0 15.46 0 19.311C0 23.162 10.55 26.283 17.56 26.283C24.57 26.283 25.387 23.162 25.387 19.311Z" fill="black"/>
<path d="M215.152 0.000976562H207.187V38.042H215.152C217.465 38.042 219.341 29.526 219.341 19.021C219.341 8.51598 217.465 0.000976562 215.152 0.000976562Z" fill="#853E2A"/>
<path opacity="0.3" d="M207.188 24.285V38.042H215.153C217.063 38.042 218.671 32.227 219.176 24.285H207.188Z" fill="black"/>
<path d="M211.376 19.021C211.376 29.526 209.501 38.042 207.188 38.042C204.875 38.042 203 29.526 203 19.021C203 8.516 204.875 0 207.188 0C209.501 0.001 211.376 8.516 211.376 19.021Z" fill="#D18067"/>
<path opacity="0.3" d="M209.826 24.522L211.215 24.285C210.71 32.229 209.098 38.042 207.188 38.042C204.875 38.042 203 29.526 203 19.021L209.826 24.522Z" fill="black"/>
<path d="M21.493 0.000976562H29.457V38.042H21.493C19.18 38.042 17.304 29.526 17.304 19.021C17.304 8.51598 19.18 0.000976562 21.493 0.000976562Z" fill="#853E2A"/>
<path opacity="0.3" d="M17.47 24.285C17.974 32.226 19.582 38.042 21.493 38.042H29.457V24.285H17.47Z" fill="black"/>
<path d="M29.456 38.042C31.7695 38.042 33.645 29.526 33.645 19.021C33.645 8.51599 31.7695 0 29.456 0C27.1425 0 25.267 8.51599 25.267 19.021C25.267 29.526 27.1425 38.042 29.456 38.042Z" fill="#693121"/>
<path d="M206.383 3H31.62C29.069 3 27 10.1638 27 19.0005C27 27.8372 29.069 35 31.62 35H206.383C208.932 35 211 27.8372 211 19.0005C211 10.1638 208.932 3 206.383 3Z" fill="#F7E6BB"/>
<path opacity="0.2" d="M27 25C27.6575 30.8416 29.3515 35 31.3414 35H206.66C208.649 35 210.345 30.8416 211 25C211 25 182.327 26.7243 119.001 26.7243C55.6743 26.7243 27 25 27 25Z" fill="black"/>
</svg>
